<svg xmlns="http://www.w3.org/2000/svg" width="244" height="212" viewBox="0 0 244 212" fill="none">
<defs>
<linearGradient id="bgc" x1="0" y1="0" x2="900" y2="212" gradientUnits="userSpaceOnUse"><stop offset="0" stop-color="#08211f"/><stop offset="1" stop-color="#06141a"/></linearGradient>
<radialGradient id="gbc" cx="0" cy="0" r="1" gradientUnits="userSpaceOnUse" gradientTransform="translate(170 20) scale(340 190)"><stop stop-color="#2dd4bf" stop-opacity=".38"/><stop offset="1" stop-color="#2dd4bf" stop-opacity="0"/></radialGradient>
<radialGradient id="ggc" cx="0" cy="0" r="1" gradientUnits="userSpaceOnUse" gradientTransform="translate(780 182) scale(320 170)"><stop stop-color="#38bdf8" stop-opacity=".30"/><stop offset="1" stop-color="#38bdf8" stop-opacity="0"/></radialGradient>
<radialGradient id="gpc" cx="0" cy="0" r="1" gradientUnits="userSpaceOnUse" gradientTransform="translate(420 212) scale(220 90)"><stop stop-color="#14b8a6" stop-opacity=".25"/><stop offset="1" stop-color="#14b8a6" stop-opacity="0"/></radialGradient>
</defs>
<rect x="1" y="1" width="898" height="210" rx="22" fill="url(#bgc)" stroke="#0f5e57"/>
<rect x="1" y="1" width="898" height="210" rx="22" fill="url(#gbc)"/>
<rect x="1" y="1" width="898" height="210" rx="22" fill="url(#ggc)"/>
<rect x="1" y="1" width="898" height="210" rx="22" fill="url(#gpc)"/>
<rect x="20" y="20" width="860" height="172" rx="16" fill="#031210" fill-opacity=".45" stroke="#14b8a6" stroke-opacity=".45"/>
<text x="44" y="56" font-family="'SF Mono','Fira Code',Menlo,Consolas,monospace" font-size="13" font-weight="700" letter-spacing="2" fill="#2dd4bf">CONNECT.ME</text><text x="154" y="56" font-family="'SF Mono','Fira Code',Menlo,Consolas,monospace" font-size="12" fill="#64748b">./contact.sh</text><text x="856" y="56" text-anchor="end" font-family="'SF Mono','Fira Code',Menlo,Consolas,monospace" font-size="12" fill="#64748b">4 channels</text><line x1="40" y1="72" x2="860" y2="72" stroke="#0f5e57"/>
<rect x="44" y="92" width="194" height="84" rx="12" fill="#06181a" fill-opacity=".8" stroke="#0f766e" stroke-opacity=".55"/><circle cx="74" cy="134.0" r="17" fill="#0a2a28" stroke="#2dd4bf" stroke-opacity=".7"/><g transform="translate(74 134.0)"><circle r="9" stroke="#2dd4bf" stroke-width="1.8"/><ellipse rx="4" ry="9" stroke="#2dd4bf" stroke-width="1.5"/><line x1="-9" y1="0" x2="9" y2="0" stroke="#2dd4bf" stroke-width="1.5"/></g><text x="102" y="129.0" font-family="'SF Mono','Fira Code',Menlo,Consolas,monospace" font-size="10" letter-spacing="1.5" fill="#64748b">./portfolio</text><text x="102" y="148.0" font-family="Inter,'Segoe UI',Helvetica,Arial,sans-serif" font-size="13" font-weight="700" fill="#f1f5f9">tuankhoidev.com</text><rect x="250" y="92" width="194" height="84" rx="12" fill="#06181a" fill-opacity=".8" stroke="#0f766e" stroke-opacity=".55"/><circle cx="280" cy="134.0" r="17" fill="#0a2a28" stroke="#38bdf8" stroke-opacity=".7"/><g transform="translate(280 134.0)"><text y="6" text-anchor="middle" font-family="Inter,'Segoe UI',Helvetica,Arial,sans-serif" font-size="17" font-weight="800" fill="#38bdf8">in</text></g><text x="308" y="129.0" font-family="'SF Mono','Fira Code',Menlo,Consolas,monospace" font-size="10" letter-spacing="1.5" fill="#64748b">./linkedin</text><text x="308" y="148.0" font-family="Inter,'Segoe UI',Helvetica,Arial,sans-serif" font-size="13" font-weight="700" fill="#f1f5f9">khoihaycuoi</text><rect x="456" y="92" width="194" height="84" rx="12" fill="#06181a" fill-opacity=".8" stroke="#0f766e" stroke-opacity=".55"/><circle cx="486" cy="134.0" r="17" fill="#0a2a28" stroke="#f87171" stroke-opacity=".7"/><g transform="translate(486 134.0)"><rect x="-10" y="-7" width="20" height="14" rx="3" stroke="#f87171" stroke-width="1.8"/><path d="M-9 -5 L0 2 L9 -5" stroke="#f87171" stroke-width="1.8" stroke-linejoin="round"/></g><text x="514" y="129.0" font-family="'SF Mono','Fira Code',Menlo,Consolas,monospace" font-size="10" letter-spacing="1.5" fill="#64748b">./mail</text><text x="514" y="148.0" font-family="Inter,'Segoe UI',Helvetica,Arial,sans-serif" font-size="13" font-weight="700" fill="#f1f5f9">Send an email</text><rect x="662" y="92" width="194" height="84" rx="12" fill="#06181a" fill-opacity=".8" stroke="#0f766e" stroke-opacity=".55"/><circle cx="692" cy="134.0" r="17" fill="#0a2a28" stroke="#a78bfa" stroke-opacity=".7"/><g transform="translate(692 134.0)"><text y="5" text-anchor="middle" font-family="'SF Mono','Fira Code',Menlo,Consolas,monospace" font-size="14" font-weight="800" fill="#a78bfa">&lt;/&gt;</text></g><text x="720" y="129.0" font-family="'SF Mono','Fira Code',Menlo,Consolas,monospace" font-size="10" letter-spacing="1.5" fill="#64748b">./github</text><text x="720" y="148.0" font-family="Inter,'Segoe UI',Helvetica,Arial,sans-serif" font-size="13" font-weight="700" fill="#f1f5f9">iawtk2302</text>
<text x="870" y="186" text-anchor="end" font-family="'SF Mono','Fira Code',Menlo,Consolas,monospace" font-size="10" fill="#1f4a46">iawtk2302</text>
</svg>